PathFileType	4	(X/Y/Z)	D:\TRACE\spotREDO_2-26-24\spot_justBody_Motion_3_2-platform.trc
DataRate	CameraRate	NumFrames	NumMarkers	Units	OrigDataRate	OrigDataStartFrame	OrigNumFrames
100.00	100.00	      24	5	mm	100.00	1	      7000
Frame#	Time	Left_Front			Right_Front			Left_Aft			Right_Aft			Post			
		X1	Y1	Z1	X2	Y2	Z2	X3	Y3	Z3	X4	Y4	Z4	X5	Y5	Z5	

1	0.000	-736.40814	99.42319	-539.51074	678.51178	94.06857	-455.33533	-806.98810	-108.04423	662.00055	763.61920	-101.51431	665.29071	-27.24330	789.12738	-828.55786	
2	0.010	-736.47156	99.50141	-539.46136	678.51819	94.06538	-455.27817	-806.98663	-108.04064	662.10150	763.54828	-101.37328	665.35809	-27.38308	789.20435	-828.42438	
3	0.020	-736.45386	99.49828	-539.48413	678.50732	94.08785	-455.24237	-806.95917	-108.02438	662.09845	763.56226	-101.35866	665.36627	-27.36819	789.18939	-828.28442	
4	0.030	-736.44159	99.48211	-539.47876	678.51935	94.07224	-455.31274	-807.00940	-107.97114	662.07581	763.49548	-101.35848	665.29803	-27.31333	789.15454	-828.21814	
5	0.040	-736.47296	99.50249	-539.45844	678.54218	94.06606	-455.30969	-806.97021	-108.03136	662.00464	763.56952	-101.50105	665.25543	-27.06149	789.06812	-828.06207	
6	0.050	-736.45886	99.38075	-539.33649	678.48181	94.09350	-455.34097	-807.07745	-108.06470	662.02985	763.55579	-101.43068	665.24347	-27.33091	789.12610	-828.16614	
7	0.060	-736.49792	99.43674	-539.27325	678.49780	94.11621	-455.31018	-807.03778	-107.99422	662.08759	763.54993	-101.41421	665.26959	-27.32903	789.15143	-828.18634	
8	0.070	-736.50793	99.44105	-539.21375	678.52014	94.12400	-455.27225	-807.03601	-107.97667	662.14777	763.53967	-101.39311	665.32391	-27.44582	789.24854	-828.18738	
9	0.080	-736.51605	99.47598	-539.21259	678.50598	94.17325	-455.15265	-807.00006	-108.00755	662.13153	763.54230	-101.42244	665.33014	-27.33482	789.26794	-828.23322	
10	0.090	-736.51135	99.45626	-539.19849	678.55359	94.12192	-455.22287	-807.03351	-107.99081	662.12054	763.58600	-101.43604	665.30170	-27.28353	789.25806	-828.30688	
11	0.100	-736.54297	99.50099	-539.23322	678.55219	94.06990	-455.25803	-807.03339	-108.02248	662.01660	763.56812	-101.45046	665.27374	-27.34094	789.22089	-828.35126	
12	0.110	-736.53033	99.51952	-539.25037	678.50085	94.10233	-455.30215	-807.05243	-107.95957	661.98920	763.59259	-101.43529	665.29669	-27.29876	789.19159	-828.44379	
13	0.120	-736.53540	99.46530	-539.21204	678.48901	94.12649	-455.30716	-807.03156	-107.90836	662.07300	763.58112	-101.32346	665.34088	-27.33887	789.21936	-828.44385	
14	0.130	-736.52844	99.42503	-539.22119	678.47845	94.15994	-455.29385	-807.06183	-107.92037	662.17303	763.51257	-101.32719	665.34680	-27.41879	789.20398	-828.42798	
15	0.140	-736.49426	99.45276	-539.24463	678.51892	94.11639	-455.31067	-806.98895	-107.95676	662.11304	763.52594	-101.41801	665.32587	-27.24630	789.16125	-828.41278	
16	0.150	-736.54565	99.45878	-539.23798	678.52380	94.08261	-455.28226	-807.02570	-107.97789	662.08533	763.56293	-101.40338	665.30133	-27.25896	789.11499	-828.35065	
17	0.160	-736.55286	99.45587	-539.22260	678.52094	94.07494	-455.29248	-807.06000	-108.01895	662.08331	763.56885	-101.43261	665.28552	-27.33845	789.16522	-828.32050	
18	0.170	-736.54236	99.51189	-539.22900	678.53259	94.08586	-455.29727	-807.04700	-107.99665	662.09473	763.57886	-101.46741	665.28882	-27.32015	789.18781	-828.27551	
19	0.180	-736.51099	99.49006	-539.20422	678.49927	94.14603	-455.21918	-807.05353	-108.01216	662.09808	763.52716	-101.41620	665.29968	-27.36034	789.24677	-828.22736	
20	0.190	-736.50800	99.52588	-539.19885	678.49036	94.15144	-455.25992	-807.00476	-107.99342	662.08563	763.55597	-101.40668	665.31079	-27.33117	789.27191	-828.20563	
21	0.200	-736.53516	99.49889	-539.18787	678.52081	94.11825	-455.25262	-807.02625	-108.01041	662.06445	763.53784	-101.41564	665.31390	-27.31891	789.25128	-828.20551	
22	0.210	-736.51947	99.43941	-539.21552	678.51434	94.08723	-455.31674	-807.01501	-107.97495	662.08643	763.53412	-101.44213	665.26459	-27.34814	789.20801	-828.21564	
23	0.220	-736.46991	99.35756	-539.21277	678.53278	94.09550	-455.26630	-807.03363	-108.02421	662.09015	763.58160	-101.42516	665.27814	-27.36400	789.13507	-828.19983	
24	0.230	-736.47552	99.38281	-539.20648	678.54456	94.07278	-455.26431	-807.02429	-108.03856	662.05652	763.56494	-101.45480	665.30768	-27.23402	789.15833	-828.20874	
